<svg width="24" height="24" viewBox="0 0 24 24" xmlns="http://www.w3.org/2000/svg" fill="currentColor">
  <!-- 虫眼鏡が重なる右下部分をマスクで切り抜く -->
  <defs>
    <mask id="cut">
      <rect width="24" height="24" fill="white"/>
      <circle cx="18" cy="18" r="6" fill="black"/>
    </mask>
  </defs>
  <!-- 元のファイルアイコン（右下を切り抜き） -->
  <path mask="url(#cut)" d="M7.5 22.5H17.595C17.07 23.4 16.11 24 15 24H7.5C4.185 24 1.5 21.315 1.5 18V6C1.5 4.89 2.1 3.93 3 3.405V18C3 20.475 5.025 22.5 7.5 22.5ZM21 8.121V18C21 19.6545 19.6545 21 18 21H7.5C5.8455 21 4.5 19.6545 4.5 18V3C4.5 1.3455 5.8455 0 7.5 0H12.879C13.4715 0 14.0505 0.24 14.4705 0.6585L20.3415 6.5295C20.766 6.954 21 7.5195 21 8.121ZM13.5 6.75C13.5 7.164 13.8375 7.5 14.25 7.5H19.1895L13.5 1.8105V6.75ZM19.5 18V9H14.25C13.0095 9 12 7.9905 12 6.75V1.5H7.5C6.672 1.5 6 2.1735 6 3V18C6 18.8265 6.672 19.5 7.5 19.5H18C18.828 19.5 19.5 18.8265 19.5 18Z"/>
  <!-- 虫眼鏡 -->
  <circle cx="16.5" cy="16.5" r="3.5" fill="none" stroke="currentColor" stroke-width="1.8"/>
  <line x1="19" y1="19" x2="22.5" y2="22.5" stroke="currentColor" stroke-width="1.8" stroke-linecap="round"/>
</svg>